<?xml version="1.0" encoding="utf-8"?>
<!-- Generator: Adobe Illustrator 18.1.1, SVG Export Plug-In . SVG Version: 6.00 Build 0)  -->
<svg version="1.1" id="Layer_1" xmlns="http://www.w3.org/2000/svg" xmlns:xlink="http://www.w3.org/1999/xlink" x="0px" y="0px"
	 viewBox="0 0 3000 3000" enable-background="new 0 0 3000 3000" xml:space="preserve">
<path fill="#539BBD" d="M2686,1500c0,600.7-531,1087.6-1186,1087.6c-158.6,0-310-28.6-448.3-80.4C618.9,2345.1,314,1955.2,314,1500
	c0-600.7,531-1087.6,1186-1087.6c557.3,0,1024.9,352.5,1151.9,827.7C2674.2,1323.4,2686,1410.4,2686,1500z"/>
<path fill="#4786A3" d="M2686,1500c0,600.7-531,1087.6-1186,1087.6c-158.6,0-310-28.6-448.3-80.4l-421.4-421.4l1278.8-342.3
	l460.6-785.7l282.2,282.2C2674.2,1323.4,2686,1410.4,2686,1500z"/>
<g>
	<g>
		<ellipse fill="#747D85" cx="1500" cy="2031.8" rx="109.7" ry="105.1"/>
		<path fill="#747D85" d="M1500,1006.9v1079H630.3v-1128h783.1C1431.1,987.3,1463.2,1006.9,1500,1006.9z"/>
		<path fill="#747D85" d="M2369.7,957.9v1128H1500v-1079c36.8,0,68.9-19.6,86.6-49L2369.7,957.9L2369.7,957.9z"/>
	</g>
	<path fill="#E3FFFE" d="M1601,1990.1c0,45.7-30.3,84.3-72,96.8c-9.2,2.8-18.9,4.2-29,4.2s-19.8-1.5-29-4.2
		c-41.7-12.5-72-51.1-72-96.8c0-45.7,30.3-84.3,72-96.8c9.2-2.8,18.9-4.2,29-4.2s19.8,1.5,29,4.2
		C1570.7,1905.8,1601,1944.4,1601,1990.1z"/>
	<g>
		<path fill="#E3FFFE" d="M1500,1006.9v1035.2H699.5V957.9h713.9c12.8,21.3,33.3,37.5,57.6,44.8
			C1480.2,1005.4,1489.9,1006.9,1500,1006.9z"/>
		<path fill="#E3FFFE" d="M2300.5,957.9v1084.2H1500V1006.9c10.1,0,19.8-1.5,29-4.2c24.3-7.3,44.8-23.5,57.6-44.8H2300.5z"/>
	</g>
	<path fill="#A6BAB9" d="M1529,1002.7v1084.2c-9.2,2.8-18.9,4.2-29,4.2s-19.8-1.5-29-4.2V1002.7c9.2,2.8,18.9,4.2,29,4.2
		S1519.8,1005.4,1529,1002.7z"/>
	<g>
		<g>
			<g>
				<rect x="776.7" y="1031.8" fill="#95A2A8" width="162" height="225"/>
				<path fill="#95A2A8" d="M1348.3,1091.8h-315c-10.8,0-19.5-8.7-19.5-19.5l0,0c0-10.8,8.7-19.5,19.5-19.5h315
					c10.8,0,19.5,8.7,19.5,19.5l0,0C1367.8,1083,1359.1,1091.8,1348.3,1091.8z"/>
				<path fill="#95A2A8" d="M1348.3,1163.8h-315c-10.8,0-19.5-8.7-19.5-19.5l0,0c0-10.8,8.7-19.5,19.5-19.5h315
					c10.8,0,19.5,8.7,19.5,19.5l0,0C1367.8,1155.1,1359.1,1163.8,1348.3,1163.8z"/>
				<path fill="#95A2A8" d="M1348.3,1235.8h-315c-10.8,0-19.5-8.7-19.5-19.5l0,0c0-10.8,8.7-19.5,19.5-19.5h315
					c10.8,0,19.5,8.7,19.5,19.5l0,0C1367.8,1227.1,1359.1,1235.8,1348.3,1235.8z"/>
			</g>
			<rect x="776.7" y="1369" fill="#95A2A8" width="591.1" height="36"/>
			<rect x="776.7" y="1442.8" fill="#95A2A8" width="591.1" height="36"/>
			<rect x="776.7" y="1516.6" fill="#95A2A8" width="591.1" height="36"/>
			<rect x="776.7" y="1590.4" fill="#95A2A8" width="591.1" height="36"/>
			<rect x="776.7" y="1724.8" fill="#95A2A8" width="105" height="24"/>
			<rect x="776.7" y="1787" fill="#95A2A8" width="222.3" height="24"/>
			<rect x="776.7" y="1839" fill="#95A2A8" width="222.3" height="24"/>
			<rect x="776.7" y="1891" fill="#95A2A8" width="162" height="24"/>
		</g>
		<g>
			<rect x="1641" y="1724.8" fill="#95A2A8" width="105" height="24"/>
			<rect x="1641" y="1787" fill="#95A2A8" width="222.3" height="24"/>
			<rect x="1641" y="1839" fill="#95A2A8" width="222.3" height="24"/>
			<rect x="1641" y="1891" fill="#95A2A8" width="162" height="24"/>
			<rect x="1641" y="1052.8" fill="#95A2A8" width="586" height="19.5"/>
			<rect x="1641" y="1177.3" fill="#95A2A8" width="586" height="19.5"/>
			<rect x="1641" y="1235.8" fill="#95A2A8" width="586" height="19.5"/>
			<rect x="1641" y="1294.3" fill="#95A2A8" width="586" height="19.5"/>
			<rect x="1641" y="1352.8" fill="#95A2A8" width="586" height="19.5"/>
			<rect x="1641" y="1411.3" fill="#95A2A8" width="586" height="19.5"/>
			<rect x="1641" y="1469.8" fill="#95A2A8" width="586" height="19.5"/>
			<rect x="1641" y="1534.9" fill="#95A2A8" width="293" height="19.5"/>
		</g>
	</g>
</g>
</svg>
